<?xml version="1.0" encoding="UTF-8"?> <svg xmlns="http://www.w3.org/2000/svg" id="Слой_1" data-name="Слой 1" viewBox="0 0 250.94 247.76"> <defs> <style>.cls-1{fill:none;}</style> </defs> <path d="M126.38,237.59A112.29,112.29,0,1,1,238.66,125.3,112.41,112.41,0,0,1,126.38,237.59Zm0-212.84A100.55,100.55,0,1,0,226.93,125.3,100.66,100.66,0,0,0,126.38,24.75ZM175.17,180a5.85,5.85,0,0,1-4.2-1.71L122.2,129.48a5.9,5.9,0,0,1-1.69-4.16v-71a5.87,5.87,0,1,1,11.73,0v68.55l47.09,47a5.88,5.88,0,0,1-4.13,10Z"></path> <g id="frame"> <rect class="cls-1" x="-15.51" y="-16.59" width="283.78" height="283.78"></rect> </g> </svg> 