<?xml version="1.0" encoding="UTF-8"?> <svg xmlns="http://www.w3.org/2000/svg" id="Слой_1" data-name="Слой 1" viewBox="0 0 259.96 247.76"> <path d="M29.15,77.27a4.21,4.21,0,0,0,1.94.47,4.41,4.41,0,0,0,4-2.46A105.31,105.31,0,0,1,54.93,47.91a107.49,107.49,0,0,1,75.52-31.2,104.94,104.94,0,0,1,44.94,10,4.58,4.58,0,0,0,1.92.42,4.25,4.25,0,0,0,3.93-2.54,4.29,4.29,0,0,0,.21-3.4,4.56,4.56,0,0,0-2.3-2.52,114.23,114.23,0,0,0-48.74-10.8A115.33,115.33,0,0,0,27.12,71.34,4.45,4.45,0,0,0,29.15,77.27Z"></path> <path d="M108.56,227.56A106.64,106.64,0,0,1,25.9,144.9a4.48,4.48,0,0,0-4.44-3.52,4.66,4.66,0,0,0-.91.1,4.79,4.79,0,0,0-2.12,1.22,4.33,4.33,0,0,0-1.22,4,115.57,115.57,0,0,0,89.54,89.54,4.27,4.27,0,0,0,.87.08,4.47,4.47,0,0,0,4.38-3.51A4.52,4.52,0,0,0,108.56,227.56Z"></path> <path d="M234.77,74.28a4.44,4.44,0,0,0-4-2.53,4.19,4.19,0,0,0-1.86.43,3.18,3.18,0,0,0-1.31.9,4.34,4.34,0,0,0-.89,5,106.76,106.76,0,0,1-21.21,120.47,105.66,105.66,0,0,1-27.36,19.87A4.33,4.33,0,0,0,176,221a4.39,4.39,0,0,0,.3,3.39,4.31,4.31,0,0,0,3.91,2.43,4.41,4.41,0,0,0,2-.46,115.48,115.48,0,0,0,52.64-152Z"></path> <path d="M211.81,41.64a4.35,4.35,0,0,0-3.09-1.29,4.72,4.72,0,0,0-1.42.22L19.51,103.37a3.61,3.61,0,0,0-1.81,1A4.47,4.47,0,0,0,19,111.61l84.53,38.27,38.28,84.53a4.34,4.34,0,0,0,4,2.62h.27a4.31,4.31,0,0,0,4-3L212.88,46.14A4.37,4.37,0,0,0,211.81,41.64ZM108.72,142.5,33,108.21,201.68,51.77,145.32,220.52l-34.38-75.8A4.37,4.37,0,0,0,108.72,142.5Z"></path> </svg> 